<?xml version="1.0" encoding="UTF-8" standalone="no"?>
<svg
   xmlns:osb="http://www.openswatchbook.org/uri/2009/osb"
   xmlns:dc="http://purl.org/dc/elements/1.1/"
   xmlns:cc="http://creativecommons.org/ns#"
   xmlns:rdf="http://www.w3.org/1999/02/22-rdf-syntax-ns#"
   xmlns:svg="http://www.w3.org/2000/svg"
   xmlns="http://www.w3.org/2000/svg"
   xmlns:sodipodi="http://sodipodi.sourceforge.net/DTD/sodipodi-0.dtd"
   xmlns:inkscape="http://www.inkscape.org/namespaces/inkscape"
   width="205mm"
   height="80mm"
   viewBox="0 0 581.10237 226.77165"
   version="1.1"
   id="svg3693"
   inkscape:version="0.91 r13725"
   sodipodi:docname="auro-logo.svg">
  <metadata
     id="metadata3742">
    <rdf:RDF>
      <cc:Work
         rdf:about="">
        <dc:format>image/svg+xml</dc:format>
        <dc:type
           rdf:resource="http://purl.org/dc/dcmitype/StillImage" />
        <dc:title />
      </cc:Work>
    </rdf:RDF>
  </metadata>
  <defs
     id="defs3740">
    <linearGradient
       id="linearGradient4161"
       osb:paint="solid">
      <stop
         style="stop-color:#4a4f54;stop-opacity:1;"
         offset="0"
         id="stop4163" />
    </linearGradient>
    <linearGradient
       id="linearGradient4501"
       osb:paint="gradient">
      <stop
         style="stop-color:#4a4f54;stop-opacity:1;"
         offset="0"
         id="stop4503" />
      <stop
         style="stop-color:#4a4f54;stop-opacity:0;"
         offset="1"
         id="stop4505" />
    </linearGradient>
    <linearGradient
       id="linearGradient4489"
       osb:paint="gradient">
      <stop
         style="stop-color:#000000;stop-opacity:1;"
         offset="0"
         id="stop4491" />
      <stop
         style="stop-color:#000000;stop-opacity:0;"
         offset="1"
         id="stop4493" />
    </linearGradient>
    <linearGradient
       id="linearGradient4483"
       osb:paint="solid">
      <stop
         style="stop-color:#4a4f54;stop-opacity:1;"
         offset="0"
         id="stop4485" />
    </linearGradient>
  </defs>
  <sodipodi:namedview
     pagecolor="#ffffff"
     bordercolor="#666666"
     borderopacity="1"
     objecttolerance="10000"
     gridtolerance="10"
     guidetolerance="10"
     inkscape:pageopacity="0"
     inkscape:pageshadow="2"
     inkscape:window-width="1920"
     inkscape:window-height="1009"
     id="namedview3738"
     showgrid="false"
     inkscape:zoom="3.2240372"
     inkscape:cx="143.78889"
     inkscape:cy="50.132706"
     inkscape:window-x="0"
     inkscape:window-y="24"
     inkscape:window-maximized="1"
     inkscape:current-layer="surface38875"
     units="mm"
     inkscape:snap-path-clip="true"
     width="100mm" />
  <g
     id="surface38875"
     transform="translate(0,-385.22836)">
    <path
       style="fill:#ffffff;fill-opacity:0;fill-rule:nonzero;stroke:none"
       d="m 720.33029,325.64207 -791.999999,0 c -9.941405,0 -17.999999,8.0625 -17.999999,18 l 0,260.39062 c 0,5.96094 2.949219,11.53516 7.878907,14.88672 l 107.238282,72.88672 c 2.98437,2.02734 6.51172,3.11328 10.12109,3.11328 l 488.847659,-0.17969 c 5.92187,0 11.46484,-2.91406 14.82031,-7.79297 L 735.15842,402.25144 c 2.0664,-3 3.17187,-6.55859 3.17187,-10.20312 l 0,-48.40625 c 0,-9.9375 -8.0625,-18 -18,-18"
       id="path3696"
       inkscape:connector-curvature="0" />
    <path
       style="fill:#4a4f54;fill-opacity:1;fill-rule:nonzero;stroke:none"
       d="m 236.04904,535.92722 c -18.00391,0 -32.25,-4.92969 -42.35156,-14.67969 -10.09766,-9.7539 -15.1211,-24.63281 -15.1211,-44.49218 l 0,-77.83985 19.92969,0 0,77.01953 c 0,13.60938 3.38281,24.1875 10.04297,31.4336 6.80078,7.40234 16.22656,11.15625 27.91016,11.15625 11.68359,0 21.03906,-3.6211 27.8164,-10.76172 6.77735,-7.14063 10.1211,-17.40625 10.1211,-30.77344 l 0,-78.07422 19.91797,0 0,76.8125 c 0,10.42188 -1.39063,19.54297 -4.14063,27.08203 -2.39453,6.91016 -6.30078,13.20313 -11.43359,18.41407 -5.10938,4.96484 -11.27344,8.70703 -18.03516,10.9375 -7.95703,2.60156 -16.28906,3.87109 -24.65625,3.76562"
       id="path3700"
       inkscape:connector-curvature="0" />
    <path
       style="fill:#4a4f54;fill-opacity:1;fill-rule:nonzero;stroke:none"
       d="m 405.00217,535.92722 -28.35938,-33.94531 c -1.69922,-2.07813 -2.51562,-4.74609 -2.26953,-7.42188 0.19922,-2.19531 1.45703,-4.41406 4.20312,-7.41796 l 0.53907,-0.58985 c 8.46093,-9.26953 26.0625,-28.52734 26.0625,-43.26953 0,-13.62109 -10.15235,-27.40625 -29.5625,-27.40625 l -36.72266,0 0,120.05078 -19.20312,0 0,-127.33594 c 0,-5.47265 4.09375,-9.96093 9.13281,-9.96093 l 53.0625,0 c 13.90625,0 26.83203,7.27734 34.51172,19.47265 0.32031,0.48438 0.61328,0.98047 0.97265,1.61328 0.36328,0.63672 0.67578,1.21485 0.99219,1.82422 l 0.13672,0.28516 c 0.14844,0.28125 0.27734,0.53516 0.40234,0.77344 2.86328,6.00781 4.33985,12.57812 4.32813,19.23047 0,1.34375 -0.0703,2.76953 -0.22266,4.33593 l 0,0.1875 c -0.96094,14.76953 -11.3125,28.29297 -20.45312,40.21485 l -0.33203,0.4414 c -1.34766,1.75391 -2.62891,3.42969 -3.86719,5.10547 l -0.19922,0.29688 c -0.67578,1.02343 -1.10156,2.19531 -1.24219,3.41406 -0.23828,1.99609 0.33203,4.00391 1.58985,5.57031 9.49609,11.44141 21.05468,25.26563 28.78906,34.5 z m 0,0"
       id="path3702"
       inkscape:connector-curvature="0" />
    <path
       style="fill:#4a4f54;fill-opacity:1;fill-rule:nonzero;stroke:none"
       d="m 10.033421,487.48972 c -1.1289097,1.66797 -1.7343797,3.63672 -1.7265697,5.65625 l 0,37.96094 c 0,5.55859 4.5039097,10.06641 10.0664097,10.06641 5.55859,0 10.06641,-4.50782 10.06641,-10.06641 l 0,-20.65625 c -9.02344,-0.67188 -15.5,-6.21094 -18.40625,-22.96094"
       id="path3704"
       inkscape:connector-curvature="0" />
    <path
       style="fill:#4a4f54;fill-opacity:1;fill-rule:nonzero;stroke:none"
       d="m 153.10373,487.48972 c -2.9375,16.74219 -9.38281,22.28125 -18.40625,22.95313 l 0,20.65625 c 0,5.55859 4.50781,10.0664 10.0664,10.0664 5.5625,0 10.07032,-4.50781 10.07032,-10.0664 l 0,-37.95313 c 0.004,-2.01953 -0.60157,-3.98828 -1.73047,-5.65625"
       id="path3706"
       inkscape:connector-curvature="0" />
    <path
       style="fill:#4a4f54;fill-opacity:1;fill-rule:nonzero;stroke:none"
       d="m 504.35763,516.44675 c -27.86328,0 -50.45312,-22.58984 -50.45312,-50.45312 0,-27.86719 22.58984,-50.45703 50.45312,-50.45703 27.86719,0 50.45704,22.58984 50.45704,50.45703 0,27.86328 -22.58985,50.45312 -50.45704,50.45312 m 0,-120.28125 c -38.5625,0 -69.82421,31.26172 -69.82421,69.82813 0,38.5625 31.26171,69.82422 69.82421,69.82422 38.56641,0 69.82813,-31.26172 69.82813,-69.82422 0,-38.56641 -31.26172,-69.82813 -69.82813,-69.82813"
       id="path3708"
       inkscape:connector-curvature="0" />
    <path
       style="fill:#4a4f54;fill-opacity:1;fill-rule:nonzero;stroke:none"
       d="m 208.04513,564.77878 7.54297,0 0,34.26954 -7.54297,0 z m 0,0"
       id="path3710"
       inkscape:connector-curvature="0" />
    <path
       style="fill:#4a4f54;fill-opacity:1;fill-rule:nonzero;stroke:none"
       d="m 230.88888,571.57566 5.82422,0 c 1.44141,-0.0117 2.8711,0.25 4.21094,0.77344 1.22266,0.47265 2.33203,1.19922 3.25391,2.125 0.91406,0.9414 1.6289,2.05468 2.10156,3.27734 0.52344,1.32422 0.78516,2.73828 0.77344,4.16406 l 0,0.10157 c 0.0156,1.42187 -0.2461,2.83593 -0.77344,4.15625 -0.48047,1.20703 -1.19531,2.30859 -2.10156,3.23828 -0.92188,0.92578 -2.03125,1.64453 -3.25391,2.10156 -1.34766,0.5 -2.77344,0.75 -4.21094,0.73437 l -5.82422,0 z m 13.1875,26.14062 c 2.14454,-0.82031 4.10547,-2.04687 5.78125,-3.61718 1.60938,-1.52344 2.88672,-3.36328 3.7461,-5.40625 0.89062,-2.14063 1.33984,-4.4375 1.32031,-6.75391 l 0,-0.0977 c 0.0195,-2.3125 -0.42969,-4.60156 -1.32031,-6.73437 -0.86328,-2.03906 -2.13672,-3.88281 -3.7461,-5.40625 -1.67187,-1.57031 -3.63671,-2.78906 -5.78125,-3.59375 -2.35156,-0.88672 -4.84765,-1.32813 -7.36328,-1.29688 l -13.36718,0 0,34.26563 13.36718,0 c 2.51953,0.0234 5.01953,-0.4375 7.36328,-1.35938"
       id="path3712"
       inkscape:connector-curvature="0" />
    <path
       style="fill:#4a4f54;fill-opacity:1;fill-rule:nonzero;stroke:none"
       d="m 312.73654,597.978 c 1.10156,-0.51953 2.13672,-1.16797 3.08984,-1.92968 0.97657,-0.77735 1.89454,-1.62891 2.74219,-2.54297 l -4.67969,-4.73438 c -3.09765,3.88281 -8.4414,5.15625 -12.96093,3.08985 -0.0586,0 -0.13672,-0.0391 -0.19922,-0.0703 -0.28516,-0.14843 -0.5625,-0.3125 -0.82813,-0.49609 -0.2539,-0.14453 -0.51562,-0.27734 -0.76953,-0.44531 -0.25781,-0.17188 -0.27344,-0.22266 -0.40234,-0.33203 -4.78125,-3.63282 -5.71094,-10.45313 -2.07813,-15.23438 0.6211,-0.82031 1.35938,-1.54687 2.1875,-2.16016 0.0977,-0.0703 0.1836,-0.16015 0.28516,-0.23046 0.32812,-0.21485 0.66797,-0.41407 1.01953,-0.58985 0.20703,-0.11328 0.39453,-0.26172 0.61719,-0.35937 l 0.11719,-0.0391 c 4.44531,-2.05859 9.72265,-0.87109 12.85546,2.89454 l 4.63672,-5.33204 c -0.79297,-0.78125 -1.64453,-1.5039 -2.55078,-2.15234 -0.92969,-0.66016 -1.92969,-1.21875 -2.98047,-1.66016 -1.16015,-0.48437 -2.36718,-0.84765 -3.60156,-1.08203 -1.44531,-0.26953 -2.91016,-0.39843 -4.38281,-0.39062 -2.48438,-0.0274 -4.94922,0.44531 -7.2461,1.39453 -2.11328,0.87891 -4.02734,2.17578 -5.625,3.81641 -1.57421,1.625 -2.82031,3.53515 -3.67187,5.63281 -0.88672,2.18359 -1.33594,4.51953 -1.32031,6.875 l 0,0.10156 c -0.0156,2.36328 0.43359,4.70703 1.32031,6.89844 0.83984,2.09765 2.08984,4.0039 3.67187,5.60937 1.59766,1.60157 3.49219,2.8711 5.57813,3.74219 2.21484,0.92578 4.59766,1.39453 7,1.375 1.51172,0.0117 3.02344,-0.125 4.50391,-0.41797 1.26953,-0.25781 2.5039,-0.67187 3.67187,-1.23047"
       id="path3714"
       inkscape:connector-curvature="0" />
    <path
       style="fill:#4a4f54;fill-opacity:1;fill-rule:nonzero;stroke:none"
       d="m 362.31076,592.23972 0,-27.48437 -7.54297,0 0,31.39453 c 0.008,1.58594 1.28906,2.86719 2.875,2.87109 l 21.75,0 0,-6.80469 z m 0,0"
       id="path3716"
       inkscape:connector-curvature="0" />
    <path
       style="fill:#4a4f54;fill-opacity:1;fill-rule:nonzero;stroke:none"
       d="m 392.63888,592.23972 0,-27.48437 -7.54296,0 0,31.39453 c 0,1.58594 1.28906,2.87109 2.875,2.87109 l 21.75,0 0,-6.80469 z m 0,0"
       id="path3718"
       inkscape:connector-curvature="0" />
    <path
       style="fill:#4a4f54;fill-opacity:1;fill-rule:nonzero;stroke:none"
       d="m 331.18576,592.23972 0,-7.10156 14.77344,0 0,-6.70703 -14.77344,0 0,-6.85156 17.09375,0 0,-6.82422 -21.75781,0 c -1.58594,0 -2.86719,1.28515 -2.86719,2.86718 l 0,28.52735 c 0,1.58203 1.28125,2.86719 2.86719,2.87109 l 21.75781,0 0,-6.80469 z m 0,0"
       id="path3720"
       inkscape:connector-curvature="0" />
    <path
       style="fill:#4a4f54;fill-opacity:1;fill-rule:nonzero;stroke:none"
       d="m 266.20529,592.23972 0,-7.10156 14.76563,0 0,-6.70703 -14.76563,0 0,-6.85156 17.08594,0 0,-6.82422 -21.75,0 c -1.58594,0 -2.8711,1.28125 -2.875,2.86718 l 0,28.52735 c 0.004,1.58594 1.28906,2.86719 2.875,2.87109 l 21.75,0 0,-6.80469 z m 0,0"
       id="path3722"
       inkscape:connector-curvature="0" />
    <path
       style="fill:#61c23a;fill-opacity:1;fill-rule:nonzero;stroke:none"
       d="m 406.47873,573.7241 10.03515,-25.45703 -25.45312,10.04296 11.28906,4.11719 z m 0,0"
       id="path3724"
       inkscape:connector-curvature="0" />
    <path
       style="fill:#4a4f54;fill-opacity:1;fill-rule:nonzero;stroke:none"
       d="m 195.12717,588.59128 c 0.0117,-0.0508 0.0312,-0.10156 0.0625,-0.14453 2.48828,-3.21484 5.85937,-6.86328 6.17968,-11.23828 0.043,-0.37109 0.0625,-0.75 0.0625,-1.125 0.004,-1.73047 -0.39453,-3.43359 -1.15625,-4.98437 -0.0469,-0.10157 -0.10156,-0.19922 -0.15625,-0.30078 -0.0547,-0.10157 -0.16797,-0.32422 -0.26172,-0.48047 -0.0937,-0.15625 -0.17968,-0.28516 -0.27343,-0.41797 -2.08203,-3.21094 -5.65625,-5.15235 -9.48438,-5.14453 l -12.58203,0 c -2.02734,0.0234 -3.65625,1.67187 -3.65234,3.69922 l 0,30.57031 7.51562,0 0,-27.44922 7.25,0 c 3.7461,0 5.53906,2.49219 5.53906,4.83984 0,2.89063 -4.22656,7.26953 -5.93359,9.07032 -0.73437,0.66796 -1.21875,1.55859 -1.38281,2.53515 -0.0937,0.9961 0.22265,1.98828 0.8789,2.74219 l 7.1875,8.28125 9.17188,0 c 0,0 -5.10156,-5.84766 -8.87891,-10.23438 -0.0586,-0.0586 -0.0898,-0.13671 -0.0859,-0.21875"
       id="path3726"
       inkscape:connector-curvature="0" />
    <path
       style="fill:#2896e6;fill-opacity:1;fill-rule:nonzero;stroke:none"
       d="m 81.576381,475.603 c -30.66796,0.0781 -58.08203,7.1875 -52.54296,-16.39453 6.0039,-25.45703 21.99218,-44.55859 52.54296,-44.76953 30.542969,0.21094 46.523439,19.31641 52.542969,44.76953 5.53907,23.58203 -21.86718,16.47266 -52.542969,16.39453 m 0,-80.83593 c -40.46484,0 -74.2773397,32.8164 -73.2734297,73.25 1.7226497,67.99609 32.7929697,34.04296 73.2421797,34.04296 40.449219,0 71.511719,33.92969 73.242189,-34.04296 1.05078,-40.4336 -32.76172,-73.25 -73.210939,-73.25"
       id="path3728"
       inkscape:connector-curvature="0" />
    <path
       style="fill:#ffffff;fill-opacity:1;fill-rule:nonzero;stroke:none"
       d="m 35.076381,483.07566 c 4.76954,0 8.63282,3.86328 8.63282,8.63281 0,4.76563 -3.86328,8.62891 -8.63282,8.62891 -4.76562,0 -8.6289,-3.86328 -8.6289,-8.62891 0,-4.76953 3.86328,-8.63281 8.6289,-8.63281"
       id="path3730"
       inkscape:connector-curvature="0" />
    <path
       style="fill:#ffffff;fill-opacity:1;fill-rule:nonzero;stroke:none"
       d="m 128.06076,483.07566 c 4.76562,0 8.62891,3.86328 8.62891,8.63281 0,4.76563 -3.86329,8.62891 -8.62891,8.62891 -4.76563,0 -8.62891,-3.86328 -8.62891,-8.62891 0,-4.76953 3.86328,-8.63281 8.62891,-8.63281"
       id="path3732"
       inkscape:connector-curvature="0" />
    <path
       style="fill:#4a4f54;fill-opacity:1;fill-rule:nonzero;stroke:#4a4f54;stroke-opacity:1"
       d="m 120.33607,592.41321 c 0.96435,0.006 1.923,-0.17523 2.81887,-0.54324 0.85022,-0.36214 1.62058,-0.89954 2.25968,-1.58296 0.67334,-0.71848 1.1926,-1.57713 1.52356,-2.51756 0.39374,-1.06895 0.58775,-2.20799 0.56492,-3.35287 l 0,-0.0701 c 0.0117,-1.13904 -0.18259,-2.27805 -0.57634,-3.34701 -0.35378,-0.95212 -0.88445,-1.81662 -1.5692,-2.54676 -0.6391,-0.68928 -1.40374,-1.23835 -2.25969,-1.61802 -1.76322,-0.7652 -3.7661,-0.7652 -5.52934,0 -0.89588,0.38551 -1.71187,0.9521 -2.3909,1.65305 -0.7133,0.73016 -1.2782,1.58881 -1.67195,2.5351 -0.42795,1.02805 -0.64478,2.13788 -0.63338,3.25939 l 0,0.0759 c -0.0117,1.12735 0.20543,2.24302 0.63338,3.28276 0.76464,1.88086 2.22544,3.37622 4.06285,4.15894 0.87306,0.39136 1.81458,0.59582 2.76754,0.60164 z m 0.15405,1.73484 c -0.85023,0.006 -1.69474,-0.12262 -2.50504,-0.37383 -0.72467,-0.22198 -1.42084,-0.56077 -2.05423,-0.99301 -0.60486,-0.40889 -1.16407,-0.88786 -1.66053,-1.4311 -0.47932,-0.52572 -0.91868,-1.08647 -1.30673,-1.68811 l 0,4.03043 -1.75181,0 0,-26.79367 1.75181,0 0,12.2257 c 0.39374,-0.62502 0.83883,-1.21498 1.32957,-1.76406 0.50215,-0.55493 1.06135,-1.05143 1.67192,-1.47199 0.63339,-0.42641 1.31814,-0.76521 2.04284,-1.00469 0.80457,-0.25702 1.6434,-0.38551 2.4822,-0.37969 1.11843,0 2.21975,0.22783 3.25257,0.66008 1.06135,0.43808 2.02572,1.08645 2.8417,1.90423 0.86735,0.87617 1.55781,1.91592 2.03142,3.0608 0.52497,1.29674 0.78747,2.68696 0.77034,4.08885 l 0,0.0818 c 0.0171,1.40773 -0.24537,2.79795 -0.77034,4.09468 -0.47932,1.14489 -1.16978,2.19047 -2.03142,3.08417 -0.81598,0.82362 -1.78035,1.48367 -2.8417,1.93929 -1.02713,0.46144 -2.12842,0.70679 -3.25257,0.73015"
       id="path3734"
       inkscape:connector-curvature="0" />
    <path
       style="fill:#4a4f54;fill-opacity:1;fill-rule:evenodd;stroke:#4a4f54;stroke-width:1;stroke-miterlimit:4;stroke-dasharray:none;stroke-opacity:1"
       d="m 137.09528,599.668 c -0.62769,0.006 -1.25536,-0.0643 -1.86593,-0.21028 -0.59916,-0.15187 -1.1869,-0.36216 -1.75753,-0.60748 l 0.61057,-1.60634 c 0.43938,0.23949 0.913,0.41473 1.39802,0.53155 0.56493,0.12845 1.14697,0.18691 1.729,0.17524 0.44508,0 0.89588,-0.0759 1.31814,-0.22197 0.42226,-0.16939 0.80458,-0.42641 1.12984,-0.75351 0.39373,-0.41473 0.7418,-0.87619 1.03853,-1.37269 0.37661,-0.66006 0.71329,-1.34933 1.00431,-2.0561 l -8.78191,-18.56924 2.04282,0 7.59501,16.72924 6.59071,-16.72924 1.94583,0 -7.90314,19.37531 c -0.55922,1.57129 -1.47222,2.99072 -2.67622,4.1239 -0.96436,0.80025 -2.17979,1.22083 -3.41805,1.19161"
       id="path3736"
       inkscape:connector-curvature="0" />
  </g>
</svg>
